Coordinates
version=1
nRows=20
nColumns=34
inDegrees=yes

Units are S.I. units (second, meters, Newtons, ...)
If the header above contains a line with 'inDegrees', this indicates whether rotational values are in degrees (yes) or radians (no).

endheader
time	pelvis_tilt	pelvis_list	pelvis_rotation	pelvis_tx	pelvis_ty	pelvis_tz	hip_flexion_r	hip_adduction_r	hip_rotation_r	knee_angle_r	ankle_angle_r	subtalar_angle_r	mtp_angle_r	hip_flexion_l	hip_adduction_l	hip_rotation_l	knee_angle_l	ankle_angle_l	subtalar_angle_l	mtp_angle_l	lumbar_extension	lumbar_bending	lumbar_rotation	arm_flex_r	arm_add_r	arm_rot_r	elbow_flex_r	pro_sup_r	arm_flex_l	arm_add_l	arm_rot_l	elbow_flex_l	pro_sup_l
      2.78333330	    -13.34533896	     -1.46222105	      1.49509244	      0.20024256	      0.48667756	     -0.04362369	     66.16311686	    -24.29044790	      6.51658101	    129.52385730	     50.00000000	     35.00000000	      0.00000000	    111.30111679	     -5.90656840	    -19.13916118	     64.97632912	     -0.87097186	      5.91200261	      0.00000000	    -45.94271087	    -10.33237719	      4.88202462	     97.88053332	     11.64042044	     10.53868388	     77.78651903	     77.86183717	     43.58689869	     -5.02206138	      6.31286798	     47.95667983	     71.70869140
      2.80000000	    -11.36433904	     -0.07327010	      1.24346964	      0.19249723	      0.48781815	     -0.04423684	     64.20498675	    -24.01612676	      9.47675475	    130.62295138	     50.00000000	     29.76972065	      0.00000000	    108.18214904	     -5.40728483	    -19.44653189	     62.99324228	     -0.58524198	      4.53326959	      0.00000000	    -46.84283168	    -11.46803285	      7.07400029	     96.01142032	     10.14728744	     10.05780784	     75.33267517	     77.74404293	     38.38276436	     -3.39285685	      6.20536892	     49.48934183	     72.12729176
      2.81666670	     -8.86219962	      0.78267038	      1.38271985	      0.18307295	      0.49462635	     -0.04248963	     61.65387461	    -23.76097328	     11.44904699	    132.08518286	     50.00000000	     26.79785155	      0.00000000	    104.64686784	     -4.14223721	    -18.68439528	     61.37067206	     -0.29750269	      3.21714871	      0.00000000	    -48.13301901	    -11.92515859	      8.55083634	     94.92697227	      8.93474597	     10.18720564	     70.43097991	     77.41096457	     33.05999406	     -3.11954463	      5.97353414	     51.83824331	     73.04862010
      2.83333330	     -7.45013135	      1.87438987	      1.59260921	      0.17584915	      0.49701661	     -0.04037586	     60.77260869	    -23.52674737	     13.13587285	    133.58558760	     50.00000000	     24.51371770	      0.00000000	    101.94965343	     -3.11775698	    -18.54644335	     58.63769569	     -1.99765824	      2.20714680	      0.00000000	    -47.84558798	    -12.73015641	     10.54165769	     92.16702047	      6.98620542	     10.86488093	     67.57889622	     77.33948810	     29.08590023	     -3.04398208	      6.85462834	     52.35471909	     73.41989234
      2.85000000	     -6.19549696	      2.22662799	      1.99553035	      0.16373805	      0.50328024	     -0.03545784	     59.45527720	    -22.61173862	     12.16931243	    133.87667723	     50.00000000	     19.88321940	      0.00000000	     99.84942863	     -2.10651768	    -17.78479594	     56.34379742	     -2.99471954	      1.61099346	      0.00000000	    -47.68271823	    -12.83550195	     12.41894991	     89.90596381	      6.11707113	     13.39722671	     63.29874367	     77.29603229	     26.71980452	     -4.27474348	      9.12950470	     52.27729832	     73.97597569
      2.86666670	     -5.68416858	      2.22036873	      2.61106252	      0.15285785	      0.50056728	     -0.02961262	     59.00634130	    -21.75523096	     10.32594535	    134.19333636	     50.00000000	     14.35032478	      0.00000000	     98.69438222	     -1.35865357	    -17.12155787	     53.95116199	     -4.06487719	      1.36436815	      0.00000000	    -46.13582106	    -12.66609945	     14.88909151	     86.98457035	      5.03929155	     16.04972910	     59.77231056	     77.25630429	     24.81564950	     -5.72706343	     11.60248475	     52.11731716	     74.18216642
      2.88333330	     -5.29003863	      1.87899905	      3.51386318	      0.14680702	      0.49924869	     -0.02945062	     58.89427079	    -21.59610625	      9.31826150	    135.24627786	     50.00000000	     10.40484921	      0.00000000	     98.03051032	     -0.21190879	    -16.59279003	     52.11461656	     -4.86332284	      0.78548970	      0.00000000	    -43.96442435	    -11.85801861	     17.76907709	     83.44428293	      3.77696502	     19.67615449	     55.79626018	     77.05812179	     22.92081318	     -7.35895585	     15.70522114	     49.00033764	     73.62482443
      2.90000000	     -3.86424577	      1.37529431	      4.37071942	      0.13731365	      0.49507252	     -0.02841842	     60.28602713	    -21.81238834	      8.93333097	    136.35706350	     50.00000000	      9.56789023	      0.00000000	     96.46233959	      1.44070497	    -15.38450810	     49.69721409	     -6.01558309	     -0.29752439	      0.00000000	    -41.93259653	    -10.92582875	     20.47558185	     80.17890043	      2.77298263	     22.95154606	     50.35358094	     77.00635879	     20.59671691	     -9.35225975	     19.64079416	     44.71623435	     72.99962495
      2.91666670	     -1.47041038	      1.13070135	      5.57794119	      0.12584867	      0.50014807	     -0.02796840	     59.91572809	    -23.13518182	      8.12389033	    136.71439075	     50.00000000	     10.88792654	      0.00000000	     94.02578570	      3.58144659	    -13.97644078	     47.63737593	     -7.36657304	     -1.11967976	      0.00000000	    -41.52296084	     -9.22197843	     23.36656548	     77.64866660	      1.48444536	     27.28974395	     44.20218471	     76.16998925	     20.18433448	    -11.55558842	     28.32316923	     40.64799082	     70.23420507
      2.93333330	      0.86387984	      0.87293212	      5.85710957	      0.12217896	      0.50852678	     -0.02044786	     58.11063350	    -22.91643746	      4.90932820	    134.97309823	     50.00000000	      9.92772720	      0.00000000	     90.09590842	      4.30513523	    -12.85160848	     44.42757191	     -9.27217903	     -2.59414371	      0.00000000	    -41.55677857	     -8.39514278	     26.17848292	     74.87428991	      1.64841322	     30.63464566	     37.61164893	     75.31046367	     19.67177837	    -14.30994774	     34.88241982	     38.78726018	     67.33175069
      2.95000000	      2.51031426	      0.30234020	      4.98975537	      0.11496142	      0.50994248	     -0.01955817	     55.57143064	    -22.05851286	      2.28142981	    133.46233797	     50.00000000	      6.28626027	      0.00000000	     88.23768516	      3.96775259	    -10.28876132	     43.62926774	    -10.46581547	     -4.04053276	      0.00000000	    -40.95955060	     -7.60493324	     29.62093256	     72.34136626	      1.08991427	     35.46549227	     31.47955034	     74.40266923	     19.49988632	    -16.28100603	     42.56298668	     35.83583286	     64.09735593
      2.96666670	      4.22483614	      0.17949350	      4.50233421	      0.09823315	      0.51076095	     -0.02160149	     54.98536709	    -21.97467932	      1.19016832	    132.56801266	     50.00000000	      4.01602234	      0.00000000	     86.08031804	      4.18251131	     -8.71897762	     42.46919948	    -11.30166223	     -5.82757713	      0.00000000	    -41.17691224	     -6.87221951	     32.20045490	     70.09346665	      0.11694974	     41.02666496	     26.91611775	     72.97453112	     21.03981995	    -19.15354468	     49.75735003	     39.44771919	     61.47029040
      2.98333330	      6.10157896	     -0.59448639	      4.01856924	      0.10548739	      0.51375591	     -0.01441416	     53.37526231	    -21.61148834	     -0.38488577	    132.66735668	     50.00000000	      2.51987266	      0.00000000	     84.15438033	      3.95778403	     -6.96654948	     41.59724601	    -12.34560669	     -7.85282853	      0.00000000	    -40.33031255	     -5.68938003	     35.71378407	     66.59022862	     -1.18469902	     51.21632362	     21.62365588	     66.63231187	     23.22420541	    -21.17597200	     55.05228063	     42.61917045	     54.22798568
      3.00000000	      8.47671301	     -1.28659667	      3.77301585	      0.10317172	      0.52025141	     -0.01925042	     50.89520738	    -21.74908885	     -1.75318741	    132.22129417	     50.00000000	      1.26832587	      0.00000000	     81.31071876	      4.21624584	     -5.22616912	     41.15134501	    -12.01398882	    -10.47286430	      0.00000000	    -40.76891862	     -4.24822374	     37.53138089	     62.26186097	     -1.62986078	     53.17420883	     18.91129848	     65.72812790	     23.26849057	    -23.18136333	     56.03426395	     46.22175044	     54.06576390
      3.01666670	     10.64217821	     -1.25683396	      2.79400119	      0.09823882	      0.52268690	     -0.01907257	     49.73642814	    -22.04331039	     -1.29235721	    132.46464018	     50.00000000	      2.75350766	      0.00000000	     78.66196563	      3.67962113	     -4.79458387	     40.60752380	    -11.58263338	    -11.71661824	      0.00000000	    -40.90491843	     -3.92068617	     38.71017484	     59.14519127	     -1.74893998	     58.22267420	     15.39760234	     63.46161789	     22.71942194	    -26.23717217	     56.58604119	     51.20294724	     53.42989818
      3.03333330	     12.57699755	     -2.02372869	      2.02060515	      0.09862121	      0.52546617	     -0.01535192	     47.92384670	    -21.40095995	     -1.84835159	    132.49811659	     50.00000000	      2.57225060	      0.00000000	     76.67549733	      2.99621892	     -3.18440030	     40.50546089	    -11.75273758	    -13.58619381	      0.00000000	    -40.71391023	     -2.69975003	     39.93533556	     56.03302930	     -1.99620609	     59.17873247	     14.04467506	     62.93365608	     21.17874033	    -28.71071999	     56.87351627	     52.25599293	     53.27687237
      3.05000000	     14.06742093	     -2.51898610	      1.43427582	      0.10492902	      0.52526316	     -0.01177931	     46.27631465	    -21.00952519	     -1.89331284	    133.03607686	     50.00000000	      1.81378568	      0.00000000	     75.60375450	      2.37208657	     -1.47760622	     41.66345026	    -10.99610994	    -14.46686843	      0.00000000	    -40.39021552	     -1.85782889	     39.01164008	     54.86984601	     -0.91524456	     63.45991739	     12.38775245	     60.15982684	     18.51939002	    -32.31980561	     57.05697356	     54.50449411	     51.58754613
      3.06666670	     14.56679505	     -3.49094202	      1.06707573	      0.10030368	      0.52052841	     -0.01171462	     46.42887428	    -19.96065163	     -2.48031982	    133.54850385	     50.00000000	      0.95950442	      0.00000000	     75.71678147	      1.86505230	      0.13610367	     42.39340563	    -10.56262448	    -15.49213956	      0.00000000	    -38.83174031	     -0.36651690	     38.33995503	     54.65663144	     -1.31387643	     64.05813574	     12.55171624	     59.78746971	     16.82920249	    -34.84180449	     57.71137561	     54.34728084	     51.40786239
      3.08333330	     15.32402109	     -4.34705141	      0.29282431	      0.09383935	      0.52038828	     -0.01052168	     46.63776454	    -18.46473154	     -2.82331239	    133.96573406	     49.62284619	      0.22782467	      0.00000000	     75.44651263	      0.94298776	      1.62890246	     42.53310297	    -11.11955185	    -15.89162489	      0.00000000	    -38.16139473	      0.63364270	     37.03243493	     56.63424828	     -1.54314656	     65.87430763	     13.02790451	     59.12231557	     15.76260827	    -37.48472491	     58.88761440	     56.64899010	     50.83435849
      3.10000000	     15.68122420	     -5.24212977	      0.16233297	      0.09707333	      0.52150112	     -0.00562158	     46.80969518	    -16.87735917	     -4.02939646	    133.90457173	     48.27942904	     -1.68669151	      0.00000000	     75.37722145	      0.21794479	      3.26358892	     42.94994525	    -10.97007700	    -14.95821467	      0.00000000	    -37.27895361	      1.69903947	     35.11149497	     59.59936493	     -1.09619439	     67.96811307	     13.37937781	     58.77070795	     14.77269071	    -39.86988083	     60.41779234	     57.19263804	     49.95482270
